<?xml version="1.0" encoding="UTF-8"?>
<svg xmlns="http://www.w3.org/2000/svg" viewBox="0 0 396.52 365.31">
  <defs>
    <style>.cls-1{fill:#502314;opacity:0.53;}</style>
  </defs>
  <g id="Layer_2" data-name="Layer 2">
    <g id="Layer_1-2" data-name="Layer 1">
      <path class="cls-1" d="M9.78,272.21a93.1,93.1,0,0,0,93.1,93.1H293.64a93.1,93.1,0,0,0,93.1-93.1,7.71,7.71,0,0,0-7.72-7.72H17.5A7.72,7.72,0,0,0,9.78,272.21Z"></path>
      <path class="cls-1" d="M354.18,146.08H276.65l-86.18,64.73a16.87,16.87,0,0,1-23.25-2.91l-49.79-61.82H42.34a42.35,42.35,0,0,0,0,84.69H354.18a42.35,42.35,0,0,0,0-84.69Z"></path>
      <path class="cls-1" d="M183.24,174.06l37.25-28H160.71Z"></path>
      <path class="cls-1" d="M329,35.66C293.85,12.66,247.4,0,198.25,0S102.65,12.66,67.47,35.66c-27.88,18.22-46.42,41.34-54,66.8a7.72,7.72,0,0,0,7.42,9.91H375.66a7.72,7.72,0,0,0,7.41-9.91C375.45,77,356.91,53.88,329,35.66Z"></path>
    </g>
  </g>
</svg>
