<?xml version="1.0" encoding="UTF-8"?>
<svg xmlns="http://www.w3.org/2000/svg" viewBox="0 0 351.85 351.85">
  <defs>
    <style>.cls-1{fill:#502314;opacity:0.53;}</style>
  </defs>
  <g id="Layer_2" data-name="Layer 2">
    <g id="Layer_1-2" data-name="Layer 1">
      <path class="cls-1" d="M345.25,182.52,169.33,6.6c-4.4-4.4-8.8-6.6-15.39-6.6H22C8.8,0,0,8.8,0,22v132c0,6.59,2.2,11,6.6,15.39L182.52,345.26c4.4,4.39,8.8,6.59,15.4,6.59s11-2.2,15.39-6.59L345.25,213.31C354.05,204.51,354.05,191.32,345.25,182.52ZM88,110c-13.19,0-22-8.79-22-22s8.8-22,22-22,22,8.8,22,22S101.16,110,88,110Z"></path>
    </g>
  </g>
</svg>
