<svg xmlns="http://www.w3.org/2000/svg" viewBox="0 0 603.23 659.36"><defs><style>.cls-1{fill:#f5ebdc;}.cls-2{fill:#d62400;}.cls-3{fill:#ff8233;}</style></defs><g id="Layer_2" data-name="Layer 2"><g id="Layer_1-2" data-name="Layer 1"><path class="cls-1" d="M603.23,184.29c0-20.27-7.27-42.34-21-63.82s-33.65-41.71-57.7-58.73C484.71,33.57,413.73,0,301.61,0c-113,0-184,33.59-223.6,61.78-23.93,17-43.76,37.37-57.33,58.84S0,164,0,184.29V545.16C0,573.33,21.55,603,56.21,622.53c46.28,26.16,117.38,36.83,245.4,36.83S500.75,648.69,547,622.55c34.69-19.57,56.24-49.22,56.24-77.39Z"/><path class="cls-2" d="M557,358.62a23.73,23.73,0,0,1,9.93,19.7,23.14,23.14,0,0,1-23.36,22.84c-12,0-14.82-8.72-32.07-8.72-14.13,0-32.44,10.11-32.44,37.83,0,24.93,13.43,38.35,33.13,38.35,5.93,0,11.51-3,11.51-7.49,0-3.66-3.32-5.06-8-5.06-9.59,0-22.49-6.8-22.49-21.09,0-15.69,11.85-22.84,27.19-22.84H529c29.46,0,44.1,16.21,44.1,39.57,0,37-26,62.24-66.94,62.24-39.05,0-78.62-26.67-78.62-83.68,0-59.62,39.57-85.25,80.19-85.25,22.66,0,38.7,5.76,49.34,13.6"/><path class="cls-2" d="M324.8,446.14c0-3.14,1-4.54,3-4.54,1.4,0,2.44.87,3.66,3.32L355.66,492c9.24,18,19.18,22.14,29.81,22.14,18.31,0,28.41-13.77,28.41-31V375.36c0-16.91-9.76-30.34-27.71-30.34s-27.72,13.43-27.72,30.34V413c0,3.13-1.05,4.53-3,4.53-1.39,0-2.43-.88-3.66-3.32l-24.23-47.07c-9.24-18-18.82-22.14-29.81-22.14-18.3,0-28.42,13.77-28.42,31V483.79c0,16.91,9.76,30.33,27.72,30.33s27.72-13.42,27.72-30.33V446.14"/><path class="cls-2" d="M87.18,483.27V458.51c0-2.09.88-3.65,3-3.65,2.79,0,3.48,2.79,4.18,4.18,4,9.59,15.69,30,26.5,42,7.32,8,16.39,13.08,26,13.08,16.21,0,29.8-14.12,29.8-29.29,0-9.41-4-16.39-11.67-24.75-9.77-10.64-21.27-24.59-25.46-31a8.85,8.85,0,0,1-1.74-4.7c0-1.93,1-3.32,3.14-5.23,4.88-4.54,16.91-15.87,23.54-26.15,5.05-7.85,7.14-15,7.14-20.92,0-15.17-13.77-27-28.76-27-9.59,0-18.66,5.41-24.76,15.34-8.19,13.26-18,28.6-24.23,34.7-1.57,1.57-2.45,1.92-3.66,1.92-2.09,0-3-1.4-3-3.67V375.88C87.18,358.8,77.07,345,58.77,345c-18.48,0-28.42,13.78-28.42,30.86V483.27c0,17.09,9.94,30.86,28.42,30.86,18.3,0,28.41-13.77,28.41-30.86"/><path class="cls-3" d="M44.64,531.74c-10.1,0-14.64,4.88-14.64,13.42,0,15,13.78,35.92,41,51.25,45.33,25.63,123.08,33,230.64,33s185.32-7.32,230.65-33c27.2-15.33,41-36.26,41-51.25,0-8.54-4.53-13.42-14.65-13.42Z"/><path class="cls-3" d="M558.58,198.93c10.12,0,14.65-5.23,14.65-14.64C573.23,128.5,487.63,30,301.61,30,113.86,30,30,128.5,30,184.29c0,9.41,4.54,14.64,14.64,14.64H558.58"/><path class="cls-2" d="M163.54,334.91c28.24,0,43.24-16.91,43.24-38.18V238c0-10.47-6.1-18.84-17.26-18.84s-17.26,8.37-17.26,18.84v56.82c0,4.19-2.44,9.07-8.72,9.07s-8.37-4.88-8.37-9.07V238c0-10.47-6.28-18.84-17.43-18.84s-17.26,8.37-17.26,18.84v58.74c0,21.27,14.82,38.18,43.06,38.18"/><path class="cls-2" d="M459.39,290.46c8.36,0,15-5.06,15-13.95s-6.63-13.94-15-13.94h-12c-3,0-4.36-1.75-4.36-4v-2.79c0-2.27,1.39-4,4.36-4h15.69c9.76,0,17.43-5.76,17.43-16.22,0-10.28-7.67-16-17.43-16H430.1c-13.77,0-20.4,8-20.4,18.83v76.88c0,10.81,6.63,18.83,20.4,18.83h32.95c9.76,0,17.43-5.75,17.43-16.21,0-10.29-7.67-16-17.43-16H447.36c-3,0-4.36-1.74-4.36-4v-3.31c0-2.27,1.39-4,4.36-4h12"/><path class="cls-2" d="M390.87,227.87a16.69,16.69,0,0,1,6.63,13.6A15.58,15.58,0,0,1,382,257.16c-8,0-9.93-5.93-21.44-5.93-9.42,0-21.62,7-21.62,26.15,0,17.26,8.9,26.5,22,26.5,4.18,0,7.84-2.09,7.84-5.23,0-2.44-2.09-3.49-5.4-3.49-6.45,0-15-4.7-15-14.46,0-11,8-15.87,18.31-15.87h5.58c19.53,0,29.29,11.16,29.29,27.37,0,25.46-17.26,42.89-44.63,42.89-26,0-52.3-18.31-52.3-57.71,0-41.14,26.32-58.92,53.34-58.92,15.35,0,25.64,4,32.95,9.41"/><path class="cls-2" d="M249.14,378c0-18.3-10.63-33-30.16-33s-30.16,14.65-30.16,33V481.18c0,18.3,10.63,32.95,30.16,32.95s30.16-14.65,30.16-32.95Z"/><path class="cls-2" d="M101,274.77c-.86-.7-1.74-1.4-1.74-2.1,0-.87.53-1.22,1.4-2.26a28.09,28.09,0,0,0,6.62-18.83c0-20.92-14.12-32.08-36.09-32.08H50.4c-13.77,0-20.4,8-20.4,18.83v76.88C30,326,36.63,334,50.4,334H75c23.18,0,37.31-15.52,37.31-34.87C112.29,283.66,103.05,276.51,101,274.77ZM60.69,249.49c0-2.27,1.39-4,4.35-4h2.27c7.5,0,9.77,5.23,9.77,9.76,0,4.18-2.27,10.11-9.77,10.11H65c-3,0-4.35-1.74-4.35-4Zm7.49,58.4H65c-3,0-4.35-1.74-4.35-4V290.29c0-2.28,1.39-4,4.35-4h3.14c8.37,0,10.81,5.58,10.81,10.64C79,301.44,76.55,307.89,68.18,307.89Z"/><path class="cls-2" d="M297.26,304.58c-5.06-6.63-9.59-12.38-11.86-18.48-.52-1.39-.17-2.61,1.4-3.84,5.4-4.18,11.68-13.42,11.68-28.06,0-22.15-18.3-34.7-40.45-34.7h-19.7c-13.78,0-20.4,8-20.4,18.83v77.76c0,10.45,6.11,18.82,17.27,18.82s17.25-8.37,17.25-18.82V297.6c0-2.26,1.05-3.31,2.79-3.31,2.09,0,2.79,1.22,3.14,3.31,1.57,8.9,5.76,20.92,10.46,27,5.93,7.84,11.51,10.28,17.09,10.28,9.06,0,16.9-7.15,16.9-16C302.83,312.94,300.39,308.58,297.26,304.58Zm-39.93-36.26h-2.44c-3,0-4.36-1.75-4.36-4V252.45c0-2.26,1.4-4,4.36-4h2.44c7.32,0,9.59,5.23,9.59,9.76C266.92,262.57,264.65,268.32,257.33,268.32Z"/><path class="cls-2" d="M567.65,304.58c-5.93-7.5-9.59-12.38-11.86-18.48-.52-1.39-.17-2.61,1.4-3.84,5.4-4.18,11.68-13.42,11.68-28.06,0-22.15-18.31-34.7-40.45-34.7H508.73c-13.78,0-20.4,8-20.4,18.83v77.76c0,10.45,6.1,18.82,17.26,18.82s17.25-8.37,17.25-18.82V297.6c0-2.26,1.06-3.31,2.79-3.31,2.1,0,2.79,1.22,3.14,3.31,1.57,8.9,5.76,20.92,10.46,27,5.93,7.84,11.51,10.28,17.09,10.28,9.06,0,16.91-7.15,16.91-16C573.23,312.94,570.79,308.58,567.65,304.58Zm-39.92-36.26h-2.44c-3,0-4.36-1.75-4.36-4V252.45c0-2.26,1.4-4,4.36-4h2.44c7.32,0,9.58,5.23,9.58,9.76C537.31,262.57,535.05,268.32,527.73,268.32Z"/></g></g></svg>