<svg xmlns="http://www.w3.org/2000/svg" viewBox="0 0 543.83 600.02"><defs><style>.cls-1{fill:#f5ebdc;}</style></defs><g id="Layer_2" data-name="Layer 2"><g id="Layer_1-2" data-name="Layer 1"><g id="Layer_2-2" data-name="Layer 2"><g id="Layer_1-2-2" data-name="Layer 1-2"><path class="cls-1" d="M527.57,329c-10.64-7.85-26.7-13.61-49.39-13.61-40.66,0-80.27,25.65-80.27,85.34,0,57.07,39.61,83.77,78.7,83.77,41,0,67-25.31,67-62.31,0-23.38-14.66-39.61-44.15-39.61H490.9c-15.35,0-27.22,7.15-27.22,22.86,0,14.31,12.91,21.12,22.51,21.12,4.71,0,8,1.39,8,5.06,0,4.54-5.58,7.5-11.52,7.5-19.72,0-33.16-13.44-33.16-38.39,0-27.75,18.33-37.87,32.46-37.87,17.28,0,20.07,8.72,32.12,8.72a23.15,23.15,0,0,0,23.38-22.86A23.75,23.75,0,0,0,527.57,329Z"/><path class="cls-1" d="M295.11,416.58v37.7c0,16.92-9.77,30.36-27.75,30.36s-27.74-13.44-27.74-30.36V346.42c0-17.28,10.12-31.06,28.44-31.06,11,0,20.6,4.19,29.85,22.16l24.25,47.12c1.23,2.45,2.27,3.32,3.67,3.32,1.92,0,3-1.4,3-4.54v-37.7c0-16.92,9.77-30.36,27.74-30.36s27.75,13.44,27.75,30.36V453.58c0,17.28-10.12,31.06-28.44,31.06-10.65,0-20.6-4.19-29.85-22.16l-24.25-47.12c-1.23-2.45-2.27-3.32-3.67-3.32C296.16,412,295.11,413.44,295.11,416.58Z"/><path class="cls-1" d="M57.24,453.75V429c0-2.09.88-3.66,3-3.66,2.79,0,3.49,2.79,4.19,4.18,4,9.6,15.7,30,26.52,42.06,7.33,8,16.41,13.09,26,13.09,16.23,0,29.84-14.13,29.84-29.32,0-9.42-4-16.4-11.69-24.78-9.77-10.64-21.29-24.61-25.48-31.06a9,9,0,0,1-1.75-4.72c0-1.92,1-3.31,3.14-5.23,4.89-4.54,16.93-15.88,23.56-26.18,5.07-7.85,7.16-15,7.16-20.94,0-15.18-13.79-27.05-28.8-27.05-9.59,0-18.67,5.41-24.78,15.36-8.2,13.26-18,28.62-24.26,34.73-1.57,1.57-2.44,1.91-3.66,1.91-2.09,0-3-1.39-3-3.66V346.25c0-17.11-10.12-30.89-28.44-30.89C10.3,315.36.35,329.14.35,346.25v107.5c0,17.11,10,30.89,28.45,30.89S57.24,470.86,57.24,453.75Z"/><path class="cls-1" d="M529.14,502.27c10.13,0,14.66,4.89,14.66,13.44,0,15-13.78,35.95-41,51.31-45.37,25.65-123.21,33-230.89,33S86.39,592.67,41,567C13.78,551.64,0,530.7,0,515.69c0-8.55,4.54-13.44,14.66-13.44Z"/><path class="cls-1" d="M529.14,169.11H14.66C4.54,169.11,0,163.87,0,154.45,0,98.6,83.94,0,271.9,0,458.12,0,543.8,98.6,543.8,154.45,543.8,163.87,539.27,169.11,529.14,169.11Z"/><path class="cls-1" d="M495.81,238.57c-3,0-4.36-1.75-4.36-4V222.69c0-2.27,1.39-4,4.36-4h2.44c7.33,0,9.6,5.24,9.6,9.78,0,4.36-2.27,10.12-9.6,10.12ZM361.26,198.08c-7.33-5.41-17.63-9.42-33-9.42-27,0-53.4,17.8-53.4,59,0,39.45,26.35,57.77,52.36,57.77,27.39,0,44.67-17.45,44.67-42.93,0-16.23-9.77-27.4-29.32-27.4H337c-10.3,0-18.33,4.89-18.33,15.88,0,9.77,8.56,14.49,15,14.49,3.32,0,5.41,1,5.41,3.49,0,3.14-3.66,5.23-7.85,5.23-13.09,0-22-9.25-22-26.53,0-19.19,12.22-26.17,21.64-26.17,11.52,0,13.44,5.93,21.47,5.93a15.59,15.59,0,0,0,15.53-15.65v-.06A16.73,16.73,0,0,0,361.26,198.08Zm68.58,62.65h-12c-3,0-4.36,1.75-4.36,4V268c0,2.27,1.39,4,4.36,4h15.71c9.77,0,17.45,5.76,17.45,16,0,10.47-7.68,16.23-17.45,16.23h-33c-13.78,0-20.42-8-20.42-18.85v-77c0-10.82,6.64-18.85,20.42-18.85h33c9.77,0,17.45,5.76,17.45,16.06,0,10.47-7.68,16.23-17.45,16.23H417.8c-3,0-4.36,1.74-4.36,4v2.8c0,2.26,1.39,4,4.36,4h12c8.38,0,15,5.06,15,14s-6.58,14-15,14Zm29,25.66c0,10.47,6.11,18.85,17.28,18.85s17.28-8.38,17.28-18.85v-18.5c0-2.27,1.05-3.32,2.79-3.32,2.09,0,2.79,1.22,3.14,3.32,1.57,8.9,5.76,20.94,10.47,27.05,5.94,7.85,11.52,10.3,17.11,10.3,9.07,0,16.92-7.16,16.92-16.06,0-5.93-2.44-10.3-5.58-14.31-5.93-7.51-9.6-12.39-11.87-18.5-.52-1.4-.17-2.62,1.4-3.84,5.41-4.19,11.69-13.44,11.69-28.1,0-22.16-18.32-34.73-40.49-34.73H479.23c-13.78,0-20.42,8-20.42,18.85Zm-270.68,0c0,10.47,6.11,18.85,17.28,18.85s17.28-8.38,17.28-18.85v-18.5c0-2.27,1-3.32,2.79-3.32,2.09,0,2.79,1.22,3.14,3.32,1.57,8.9,5.76,20.94,10.47,27.05,5.94,7.85,11.52,10.3,17.11,10.3,9.07,0,16.92-7.16,16.92-16.06,0-5.93-2.44-10.3-5.58-14.31-5.06-6.63-9.6-12.39-11.87-18.5-.52-1.4-.17-2.62,1.4-3.84,5.41-4.19,11.69-13.44,11.69-28.1,0-22.16-18.32-34.73-40.49-34.73H208.55c-13.79,0-20.42,8-20.42,18.85Zm37-47.82c-3,0-4.36-1.75-4.36-4V222.69c0-2.27,1.39-4,4.36-4h2.44c7.33,0,9.6,5.24,9.6,9.78,0,4.36-2.27,10.12-9.6,10.12Zm-190,18H38.3c8.38,0,10.82,5.59,10.82,10.65,0,4.54-2.44,11-10.82,11H35.08c-3,0-4.36-1.74-4.36-4V260.56c0-2.27,1.39-4,4.36-4Zm0-20.94c-3,0-4.36-1.74-4.36-4V219.72c0-2.27,1.39-4,4.36-4h2.27c7.5,0,9.77,5.23,9.77,9.77,0,4.19-2.27,10.12-9.77,10.12ZM20.42,304.36H45c23.21,0,37.34-15.53,37.34-34.9,0-15.53-9.25-22.69-11.34-24.43-.87-.7-1.75-1.4-1.75-2.1,0-.87.53-1.22,1.4-2.27a28,28,0,0,0,6.63-18.84c0-20.95-14.13-32.12-36.12-32.12H20.42C6.63,189.7,0,197.73,0,208.55v77C0,296.34,6.63,304.36,20.42,304.36Zm113.26.88c-28.27,0-43.1-16.93-43.1-38.22V208.2c0-10.47,6.1-18.85,17.27-18.85s17.46,8.38,17.46,18.85v56.9c0,4.18,2.09,9.07,8.37,9.07s8.73-4.89,8.73-9.07V208.2c0-10.47,6.11-18.85,17.28-18.85S177,197.73,177,208.2V267c0,21.31-15,38.24-43.32,38.24Z"/><path class="cls-1" d="M219.37,348.34c0-18.32-10.64-33-30.19-33S159,330,159,348.34V451.66c0,18.32,10.64,33,30.19,33s30.19-14.66,30.19-33Z"/></g></g></g></g></svg>