<?xml version="1.0" encoding="UTF-8"?>
<svg xmlns="http://www.w3.org/2000/svg" viewBox="0 0 380 380">
  <defs>
    <style>.cls-1{fill:#502314;opacity:0.53;}</style>
  </defs>
  <g id="Layer_2" data-name="Layer 2">
    <g id="Layer_1-2" data-name="Layer 1">
      <path class="cls-1" d="M379.93,126.67H0V142.5a31.67,31.67,0,0,0,31.67,31.67h47.5a31.67,31.67,0,0,0,31.66-31.67,31.68,31.68,0,0,0,31.67,31.67h95a31.68,31.68,0,0,0,31.67-31.67,31.67,31.67,0,0,0,31.66,31.67h47.5A31.67,31.67,0,0,0,380,142.5V126.67Z"></path>
      <path class="cls-1" d="M376.13,110.83,347.74,11.48A15.83,15.83,0,0,0,332.52,0H260l22.17,110.83Z"></path>
      <path class="cls-1" d="M120,0H47.51A15.83,15.83,0,0,0,32.28,11.48L3.9,110.83h94Z"></path>
      <path class="cls-1" d="M227.7,0H152.33L130.16,110.83H249.87Z"></path>
      <path class="cls-1" d="M300.83,190a47.27,47.27,0,0,1-31.66-12.13A47.31,47.31,0,0,1,237.5,190h-95a47.31,47.31,0,0,1-31.67-12.13A47.27,47.27,0,0,1,79.16,190H31.66a47.22,47.22,0,0,1-15.83-2.77V364.17A15.84,15.84,0,0,0,31.66,380H63.33V237.5a15.84,15.84,0,0,1,15.83-15.84h79.17a15.82,15.82,0,0,1,15.83,15.84V380H348.33a15.84,15.84,0,0,0,15.84-15.83V187.23A47.28,47.28,0,0,1,348.33,190Zm15.84,95a15.84,15.84,0,0,1-15.84,15.83H221.66A15.84,15.84,0,0,1,205.83,285V237.5a15.84,15.84,0,0,1,15.83-15.84h79.17a15.84,15.84,0,0,1,15.84,15.84Z"></path>
    </g>
  </g>
</svg>
